<svg id="Layer_1" enable-background="new 0 0 512 512" height="512" viewBox="0 0 512 512" width="512" xmlns="http://www.w3.org/2000/svg"><g><path d="m256 512c-4.721 0-9.167-2.223-12-6l-212.08-282.773c-20.584-27.445-31.92-61.454-31.92-95.76 0-70.285 57.182-127.467 127.467-127.467 45.269 0 87.287 22.485 112.399 60.148l16.134 24.206 16.135-24.205c25.11-37.664 67.129-60.149 112.398-60.149 70.285 0 127.467 57.182 127.467 127.467 0 34.306-11.336 68.314-31.92 95.76l-212.08 282.773c-2.833 3.777-7.278 6-12 6z" fill="#ff4e00"/><path d="m256 512v-427.646l16.135-24.205c25.11-37.664 67.129-60.149 112.398-60.149 70.285 0 127.467 57.182 127.467 127.467 0 34.306-11.336 68.314-31.92 95.76l-212.08 282.773c-2.833 3.777-7.278 6-12 6z" fill="#bf3000"/></g></svg>